<svg width="644" height="482" viewBox="0 0 644 482" fill="none" xmlns="http://www.w3.org/2000/svg">
<rect width="644" height="482" fill="#D9D9D9"/>
<path d="M324.714 148C324.714 148 250.709 222 236.214 236.5C221.719 251 214.214 286 240.214 312C272.714 344.5 303.714 333 312.714 324C321.714 315 380.381 256.833 411.714 225C418.881 217 428.014 195.7 407.214 174.5C386.414 153.3 363.881 165.667 355.214 174.5C355.214 174.5 283.709 246 277.714 252C271.719 258 269.714 271 277.714 279C287.714 289 299.214 283 303.714 279C307.314 275.8 337.881 245 352.714 230" stroke="#7F7F7F" stroke-width="20" stroke-linecap="round"/>
</svg>
