<?xml version="1.0" standalone="no"?>
<!DOCTYPE svg PUBLIC "-//W3C//DTD SVG 20010904//EN"
 "http://www.w3.org/TR/2001/REC-SVG-20010904/DTD/svg10.dtd">
<svg version="1.0" xmlns="http://www.w3.org/2000/svg"
 width="613.000000pt" height="614.000000pt" viewBox="0 0 613.000000 614.000000"
 preserveAspectRatio="xMidYMid meet">

<g transform="translate(0.000000,614.000000) scale(0.100000,-0.100000)"
fill="#000000" stroke="none">
<path d="M3188 3996 c3 -5 -2 -7 -10 -4 -10 4 -145 -125 -434 -415 -230 -232
-405 -410 -388 -397 16 14 7 3 -20 -24 -28 -27 -42 -43 -31 -35 11 7 5 -3 -13
-22 -18 -19 -29 -38 -26 -42 4 -4 1 -14 -7 -23 -8 -9 -14 -22 -15 -28 0 -6 -2
-17 -2 -24 -1 -7 -6 -10 -12 -7 -6 4 -7 -1 -3 -11 4 -10 2 -15 -4 -11 -11 7
-13 -6 -14 -68 0 -24 -3 -35 -8 -27 -4 7 -6 -13 -5 -45 2 -48 1 -52 -5 -23 -7
29 -8 23 -8 -35 0 -58 1 -64 8 -35 6 27 7 20 5 -30 -2 -39 -1 -57 4 -45 6 15
8 10 9 -20 1 -60 4 -75 12 -70 4 3 12 -9 18 -25 8 -24 7 -29 -2 -24 -7 3 -3
-3 9 -13 11 -10 32 -36 46 -58 14 -22 61 -78 104 -125 44 -47 70 -78 59 -70
-19 14 -19 14 -6 -3 8 -9 16 -15 19 -12 3 3 17 -5 30 -17 14 -13 22 -17 17
-10 -10 19 26 0 45 -22 7 -9 18 -16 24 -16 6 0 4 5 -4 10 -21 13 -6 12 24 -1
14 -7 23 -15 21 -19 -5 -7 9 -9 75 -10 25 0 40 -4 33 -8 -6 -4 33 -7 87 -7 54
0 93 3 87 7 -7 4 8 8 33 8 76 0 81 1 76 9 -7 10 42 33 54 26 5 -3 11 -1 15 5
3 5 15 15 27 21 16 9 19 8 13 -3 -5 -7 9 3 31 22 21 19 32 26 24 15 -10 -13
-2 -9 23 10 22 16 43 39 48 52 5 13 15 23 24 23 8 0 15 4 15 10 0 11 48 60 59
60 5 0 11 9 14 20 3 11 12 20 21 20 9 0 16 4 16 10 0 11 48 60 59 60 5 0 11 9
14 20 3 11 12 20 21 20 9 0 16 4 16 10 0 11 48 60 59 60 5 0 11 9 14 20 3 11
12 20 21 20 9 0 16 4 16 9 0 14 45 61 59 61 6 0 11 7 11 16 0 9 9 18 20 21 11
3 20 9 20 14 0 13 46 59 59 59 6 0 11 7 11 16 0 9 8 18 18 20 9 3 28 21 41 40
13 19 30 34 37 34 8 0 14 7 14 16 0 9 8 18 18 20 9 3 28 21 41 40 13 19 30 34
37 34 8 0 14 7 14 15 0 9 8 18 18 22 28 10 52 35 52 54 0 10 8 24 18 31 23 16
42 45 22 33 -8 -5 -3 11 11 36 14 24 24 52 21 63 -2 10 0 16 5 13 4 -3 8 39 8
93 0 54 -3 93 -7 87 -4 -7 -7 2 -7 18 0 45 -4 65 -11 60 -4 -2 -12 7 -19 21
-6 15 -7 23 -1 19 20 -12 9 5 -22 36 -18 18 -24 26 -12 18 11 -8 4 1 -15 20
-20 19 -28 28 -18 21 28 -20 20 -6 -15 26 -18 16 -26 20 -19 9 8 -11 -3 -2
-24 20 -20 22 -31 31 -24 21 13 -18 13 -18 -8 -6 -12 8 -19 18 -16 23 3 5 0 8
-7 5 -8 -2 -22 4 -32 14 -10 10 -24 18 -30 18 -7 -1 -2 -7 12 -15 14 -8 21
-14 15 -15 -5 0 -24 9 -41 19 -19 12 -42 17 -60 14 -17 -3 -24 -1 -17 4 6 4
-21 8 -62 8 -40 0 -68 -3 -61 -7 6 -5 -5 -8 -24 -8 -68 0 -80 -1 -75 -10 3 -4
-2 -11 -11 -14 -8 -3 -12 -2 -9 4 4 6 -5 5 -19 -1 -14 -7 -24 -15 -21 -18 2
-4 -6 -13 -18 -21 -21 -12 -21 -12 -8 6 7 10 -4 1 -24 -21 -21 -22 -32 -31
-25 -20 8 11 -165 -158 -383 -375 -218 -217 -397 -397 -397 -399 0 -2 6 0 13
5 7 5 4 1 -6 -9 -11 -9 -21 -27 -22 -40 -4 -37 -5 -38 -15 -32 -7 4 -8 -3 -4
-21 4 -15 3 -25 -2 -21 -5 3 -9 -15 -9 -38 0 -24 3 -39 7 -32 5 8 8 7 8 -5 0
-9 3 -25 6 -35 5 -15 4 -16 -6 -3 -10 13 -11 12 -6 -3 3 -10 6 -21 6 -23 0 -3
4 -2 10 1 6 3 7 -1 4 -9 -3 -9 -1 -16 5 -16 5 0 15 -10 22 -21 9 -17 8 -20 -3
-14 -7 5 0 -6 15 -22 16 -17 34 -30 40 -29 7 0 14 -3 17 -9 4 -10 47 -35 59
-35 3 0 -1 5 -9 11 -12 9 -12 10 3 5 10 -3 24 -6 30 -6 9 0 9 -2 0 -8 -6 -4
22 -7 62 -7 40 0 68 3 62 7 -8 5 -5 8 8 9 20 2 33 4 48 9 4 1 11 3 17 4 5 0
15 8 22 16 11 12 10 12 -7 0 -19 -13 -19 -13 -4 4 9 9 24 18 33 20 28 4 495
477 488 494 -3 10 -1 13 6 8 8 -5 10 -1 5 10 -4 12 -3 15 5 10 9 -5 9 0 2 20
-6 15 -8 29 -5 32 10 10 -27 41 -43 35 -8 -4 -13 -2 -10 3 4 5 -9 9 -27 8 -28
-1 -47 -16 -127 -97 -52 -54 -98 -94 -102 -90 -4 5 -6 3 -4 -3 4 -14 -97 -115
-107 -106 -5 4 -5 2 -2 -4 8 -14 -26 -47 -38 -37 -4 5 -6 4 -3 -2 7 -13 -57
-77 -67 -67 -5 4 -5 2 -2 -4 7 -12 -25 -47 -36 -39 -4 3 -5 2 -3 -1 7 -9 -36
-54 -51 -54 -8 0 -12 -4 -9 -9 7 -11 -18 -21 -54 -21 -19 0 -33 7 -40 20 -6
11 -17 20 -25 20 -19 0 -35 31 -35 67 0 25 59 88 393 422 215 216 386 390 378
386 -9 -6 -12 -4 -7 3 4 7 14 12 22 12 9 0 24 10 34 22 14 18 28 22 78 23 34
0 55 4 49 8 -7 5 4 5 23 1 19 -4 43 -8 53 -8 9 0 17 -4 17 -8 0 -4 7 -5 15 -2
8 4 27 -8 47 -28 17 -18 25 -24 17 -14 -13 18 -13 19 8 7 13 -6 22 -17 20 -23
-1 -7 5 -12 13 -13 8 0 15 -9 15 -20 0 -11 5 -20 10 -19 11 1 34 -26 35 -40 0
-6 -7 -1 -16 10 -8 10 -4 -3 10 -29 30 -55 35 -128 12 -172 -8 -15 -12 -33
-10 -40 3 -7 0 -16 -7 -21 -8 -5 -10 -3 -4 6 5 9 4 11 -4 6 -6 -4 -9 -11 -6
-16 3 -5 -12 -26 -35 -46 -22 -20 -40 -42 -40 -49 0 -7 -8 -19 -17 -26 -17
-13 -17 -12 -4 6 8 11 -8 -2 -37 -30 -29 -27 -52 -54 -52 -61 0 -6 -8 -18 -17
-25 -17 -13 -17 -12 -4 6 8 11 -8 -2 -37 -30 -29 -27 -52 -54 -52 -61 0 -6 -8
-18 -17 -25 -17 -13 -17 -12 -3 6 8 11 0 7 -18 -9 -34 -32 -44 -48 -14 -25 15
13 16 12 3 -3 -7 -10 -19 -18 -25 -18 -7 0 -34 -23 -61 -52 -28 -29 -41 -45
-31 -37 14 10 18 10 12 1 -4 -7 -19 -17 -32 -22 -13 -5 -29 -21 -34 -34 -5
-13 -15 -28 -22 -32 -10 -6 -10 -4 1 9 23 29 6 18 -25 -15 -16 -18 -20 -26
-10 -18 14 11 18 11 12 2 -4 -7 -19 -17 -32 -22 -13 -5 -29 -21 -34 -34 -5
-13 -15 -28 -22 -32 -10 -6 -10 -4 1 9 23 29 6 18 -25 -15 -16 -18 -20 -26
-10 -18 14 11 18 11 12 2 -4 -7 -19 -17 -32 -22 -13 -5 -29 -21 -34 -34 -5
-13 -15 -28 -22 -32 -10 -6 -10 -4 1 9 23 29 6 18 -25 -15 -16 -18 -20 -26 -9
-18 18 14 19 14 6 -2 -7 -10 -19 -18 -27 -18 -7 0 -30 -20 -50 -45 -35 -41
-79 -74 -58 -42 5 7 2 5 -7 -5 -9 -9 -19 -14 -23 -11 -3 4 -6 2 -6 -4 0 -13
-56 -37 -68 -29 -6 3 -29 -1 -52 -9 -53 -19 -102 -19 -162 -1 -25 8 -48 12
-51 9 -9 -8 -48 8 -42 18 3 5 -1 6 -9 3 -10 -4 -16 -1 -16 7 0 7 -3 10 -6 6
-4 -3 -14 2 -23 11 -9 10 -11 11 -6 3 9 -12 7 -12 -13 -2 -12 7 -20 16 -17 21
3 6 0 7 -8 4 -8 -3 -20 3 -28 13 -13 17 -13 17 6 4 11 -8 0 6 -25 32 -50 53
-70 65 -24 15 19 -22 21 -26 5 -13 -33 28 -79 98 -74 113 3 6 -1 12 -7 12 -7
0 -10 7 -6 16 3 8 2 12 -4 9 -6 -3 -10 -3 -11 2 -8 59 -10 82 -11 102 0 18 -2
20 -9 10 -5 -9 -9 13 -9 61 0 45 4 70 9 62 6 -9 8 -5 9 15 1 59 5 82 12 78 9
-6 23 25 15 33 -3 3 -5 -1 -5 -8 0 -7 -3 -10 -7 -7 -3 4 4 19 18 34 13 14 18
23 12 19 -25 -14 -12 7 25 42 20 20 28 29 17 22 -11 -8 12 16 50 53 39 38 64
65 56 61 -9 -5 -12 -3 -7 5 4 6 11 9 16 6 8 -5 38 25 32 32 -2 3 0 8 4 11 4 4
4 0 -1 -8 -4 -8 148 140 338 329 237 236 343 349 339 359 -3 10 -1 13 6 8 7
-4 10 -2 8 6 -3 7 -7 27 -10 43 -5 22 -4 26 4 15 5 -8 10 -10 10 -4 0 23 -42
48 -80 49 -21 0 -36 -4 -32 -9z m-28 -19 c0 -1 -24 -25 -52 -52 l-53 -50 50
53 c46 48 55 57 55 49z m-110 -110 c0 -1 -24 -25 -52 -52 l-53 -50 50 53 c46
48 55 57 55 49z m220 -1 c0 -2 -8 -10 -17 -17 -16 -13 -17 -12 -4 4 13 16 21
21 21 13z m-70 -70 c0 -2 -8 -10 -17 -17 -16 -13 -17 -12 -4 4 13 16 21 21 21
13z m-260 -39 c0 -1 -24 -25 -52 -52 l-53 -50 50 53 c46 48 55 57 55 49z m220
-1 c0 -2 -8 -10 -17 -17 -16 -13 -17 -12 -4 4 13 16 21 21 21 13z m260 -40 c0
-2 -8 -10 -17 -17 -16 -13 -17 -12 -4 4 13 16 21 21 21 13z m-330 -30 c0 -2
-8 -10 -17 -17 -16 -13 -17 -12 -4 4 13 16 21 21 21 13z m-260 -39 c0 -1 -24
-25 -52 -52 l-53 -50 50 53 c46 48 55 57 55 49z m220 -1 c0 -2 -8 -10 -17 -17
-16 -13 -17 -12 -4 4 13 16 21 21 21 13z m300 0 c0 -2 -8 -10 -17 -17 -16 -13
-17 -12 -4 4 13 16 21 21 21 13z m-40 -40 c0 -2 -8 -10 -17 -17 -16 -13 -17
-12 -4 4 13 16 21 21 21 13z m220 1 c0 -1 -24 -25 -52 -52 l-53 -50 50 53 c46
48 55 57 55 49z m-550 -31 c0 -2 -8 -10 -17 -17 -16 -13 -17 -12 -4 4 13 16
21 21 21 13z m-260 -39 c0 -1 -24 -25 -52 -52 l-53 -50 50 53 c46 48 55 57 55
49z m220 -1 c0 -2 -8 -10 -17 -17 -16 -13 -17 -12 -4 4 13 16 21 21 21 13z
m300 0 c0 -2 -8 -10 -17 -17 -16 -13 -17 -12 -4 4 13 16 21 21 21 13z m-40
-40 c0 -2 -8 -10 -17 -17 -16 -13 -17 -12 -4 4 13 16 21 21 21 13z m220 1 c0
-1 -24 -25 -52 -52 l-53 -50 50 53 c46 48 55 57 55 49z m-550 -31 c0 -2 -8
-10 -17 -17 -16 -13 -17 -12 -4 4 13 16 21 21 21 13z m-260 -39 c0 -1 -24 -25
-52 -52 l-53 -50 50 53 c46 48 55 57 55 49z m220 -1 c0 -2 -8 -10 -17 -17 -16
-13 -17 -12 -4 4 13 16 21 21 21 13z m300 0 c0 -2 -8 -10 -17 -17 -16 -13 -17
-12 -4 4 13 16 21 21 21 13z m-40 -40 c0 -2 -8 -10 -17 -17 -16 -13 -17 -12
-4 4 13 16 21 21 21 13z m220 1 c0 -1 -24 -25 -52 -52 l-53 -50 50 53 c46 48
55 57 55 49z m-550 -31 c0 -2 -8 -10 -17 -17 -16 -13 -17 -12 -4 4 13 16 21
21 21 13z m-260 -39 c0 -1 -24 -25 -52 -52 l-53 -50 50 53 c46 48 55 57 55 49z
m220 -1 c0 -2 -8 -10 -17 -17 -16 -13 -17 -12 -4 4 13 16 21 21 21 13z m300 0
c0 -2 -8 -10 -17 -17 -16 -13 -17 -12 -4 4 13 16 21 21 21 13z m-40 -40 c0 -2
-8 -10 -17 -17 -16 -13 -17 -12 -4 4 13 16 21 21 21 13z m220 1 c0 -1 -24 -25
-52 -52 l-53 -50 50 53 c46 48 55 57 55 49z m-550 -31 c0 -2 -8 -10 -17 -17
-16 -13 -17 -12 -4 4 13 16 21 21 21 13z m1320 -10 c0 -2 -8 -10 -17 -17 -16
-13 -17 -12 -4 4 13 16 21 21 21 13z m-419 -23 c13 -16 12 -17 -3 -4 -17 13
-22 21 -14 21 2 0 10 -8 17 -17z m-641 -7 c0 -2 -8 -10 -17 -17 -16 -13 -17
-12 -4 4 13 16 21 21 21 13z m-40 -40 c0 -2 -8 -10 -17 -17 -16 -13 -17 -12
-4 4 13 16 21 21 21 13z m220 0 c0 -2 -8 -10 -17 -17 -16 -13 -17 -12 -4 4 13
16 21 21 21 13z m-550 -30 c0 -2 -8 -10 -17 -17 -16 -13 -17 -12 -4 4 13 16
21 21 21 13z m510 -9 c0 -2 -15 -16 -32 -33 l-33 -29 29 33 c28 30 36 37 36
29z m810 -1 c0 -2 -8 -10 -17 -17 -16 -13 -17 -12 -4 4 13 16 21 21 21 13z
m220 0 c0 -2 -8 -10 -17 -17 -16 -13 -17 -12 -4 4 13 16 21 21 21 13z m-530
-19 c0 -1 -44 -45 -97 -97 l-98 -95 95 98 c88 90 100 102 100 94z m-750 -11
c0 -2 -8 -10 -17 -17 -16 -13 -17 -12 -4 4 13 16 21 21 21 13z m-40 -40 c0 -2
-8 -10 -17 -17 -16 -13 -17 -12 -4 4 13 16 21 21 21 13z m220 0 c0 -2 -8 -10
-17 -17 -16 -13 -17 -12 -4 4 13 16 21 21 21 13z m-40 -39 c0 -2 -15 -16 -32
-33 l-33 -29 29 33 c28 30 36 37 36 29z m810 -1 c0 -2 -8 -10 -17 -17 -16 -13
-17 -12 -4 4 13 16 21 21 21 13z m-880 -70 c0 -2 -8 -10 -17 -17 -16 -13 -17
-12 -4 4 13 16 21 21 21 13z m-40 -40 c0 -2 -8 -10 -17 -17 -16 -13 -17 -12
-4 4 13 16 21 21 21 13z m520 1 c0 -1 -24 -25 -52 -52 l-53 -50 50 53 c46 48
55 57 55 49z m220 -71 c0 -2 -8 -10 -17 -17 -16 -13 -17 -12 -4 4 13 16 21 21
21 13z m-330 -39 c0 -1 -24 -25 -52 -52 l-53 -50 50 53 c46 48 55 57 55 49z
m-110 -110 c0 -2 -15 -16 -32 -33 l-33 -29 29 33 c28 30 36 37 36 29z m110
-401 c0 -2 -8 -10 -17 -17 -16 -13 -17 -12 -4 4 13 16 21 21 21 13z"/>
<path d="M3605 3660 c-3 -6 1 -7 9 -4 18 7 21 14 7 14 -6 0 -13 -4 -16 -10z"/>
<path d="M4183 3410 c0 -30 2 -43 4 -27 2 15 2 39 0 55 -2 15 -4 2 -4 -28z"/>
<path d="M2873 2543 c9 -2 23 -2 30 0 6 3 -1 5 -18 5 -16 0 -22 -2 -12 -5z"/>
<path d="M2250 2461 c0 -6 4 -13 10 -16 6 -3 7 1 4 9 -7 18 -14 21 -14 7z"/>
<path d="M2295 2390 c10 -11 20 -20 23 -20 3 0 -3 9 -13 20 -10 11 -20 20 -23
20 -3 0 3 -9 13 -20z"/>
<path d="M2335 2340 c10 -11 20 -20 23 -20 3 0 -3 9 -13 20 -10 11 -20 20 -23
20 -3 0 3 -9 13 -20z"/>
<path d="M2970 2320 c-8 -5 -10 -10 -5 -10 6 0 17 5 25 10 8 5 11 10 5 10 -5
0 -17 -5 -25 -10z"/>
<path d="M2778 2293 c6 -2 18 -2 25 0 6 3 1 5 -13 5 -14 0 -19 -2 -12 -5z"/>
<path d="M2838 2293 c6 -2 18 -2 25 0 6 3 1 5 -13 5 -14 0 -19 -2 -12 -5z"/>
<path d="M2405 2270 c10 -11 20 -20 23 -20 3 0 -3 9 -13 20 -10 11 -20 20 -23
20 -3 0 3 -9 13 -20z"/>
<path d="M2808 2113 c6 -2 18 -2 25 0 6 3 1 5 -13 5 -14 0 -19 -2 -12 -5z"/>
</g>
</svg>
